<svg xmlns="http://www.w3.org/2000/svg" width="733.687" height="418.211" viewBox="0 0 733.687 418.211">
  <g id="Farm_House_Collective_Stack_Logo" data-name="Farm House Collective Stack Logo" transform="translate(0.002)">
    <g id="Group_10669" data-name="Group 10669" transform="translate(537.772 0.123)">
      <path id="Path_9973" data-name="Path 9973" d="M82.017.367,80.574.775l-1.353.257-1.269.582-1.068.928L76.073,3.7l-.638,1.359-.967,1.118L73.825,7.52,73,8.761,72.2,10.008l-.828,1.225-.878,1.2L69.6,13.693,68.652,14.9,67.9,16.243l-.8,1.3-.889,1.269-.66,1.376-.805,1.292-.939,1.2-.749,1.337-.761,1.32-1.118,1.32-.951,1.415-.951,1.42L58.3,30.906,57.484,32.4l-1.04,1.253-.772,1.437-.99,1.275-.895,1.359-.945,1.325-.889,1.359L51.288,41.9l-.738,1.432-.6.755-.5,1.42-.805,1.281-.895,1.2-.833,1.258-.928,1.18-.805,1.292L44.214,53.1l-.934,1.409L42,55.63l-1.32,1L39.1,57.05l-1.571-.559L36.3,55.372,35.238,54.1l-.872-1.4-.99-1.32-.833-1.415L31.458,48.7l-.716-1.488-.99-1.325-.85-1.443-.816-1.4-.816-1.4-.856-1.37-1.029-1.264L24.5,37.656l-.973-1.337-.9-1.4-.962-1.376-1.309-1.035-.559-.8-.3-1.56-.665-1.46-.772-1.443L17.046,25.98l-.856-1.37-.772-1.415-1.057-1.253-.872-1.359-.917-1.392L11.661,17.8l-.984-1.314-.8-1.465-.951-1.37-.967-1.3-.805-1.46L6.214,9.566,5.336,8.2,4.447,6.843,3.575,5.484,2.568,4.231,1.55,2.861.432,1.541-1.179.9-2.823.624-4.5.49l-1.678.1H-9.534l-1.644.235-1.152.71-.559,1.241-.067,1.555.006,1.527.056,1.555.1,1.571v1.583l.039,1.577-.067,1.571-.112,1.577.162,1.571-.078,1.577-.089,1.571.123,1.577-.089,1.577.045,1.577.134,1.577-.056,1.571v1.577l.073,1.571-.039,1.577v1.577l-.173,1.577-.028,1.571.14,1.577.067,1.577-.162,1.571.028,1.583v1.571l.1,1.577.045,1.571-.1,1.577h.173l-.073,1.577-.123,1.571.039,1.571.056,1.56v3.143l.039,1.56v3.143l-.145,1.56-.073,1.577.218,1.56-.05,1.571-.145,1.571v1.571l.213,1.571-.117,1.56.123,1.571-.067,1.577.05,1.56V86.04l-.078,1.571.112,1.56-.162,1.571.168,1.577-.073,1.56.067,1.627v1.633l.749,1.409,1.281.973,1.532.2,1.538.1,1.538.112h1.538L-3,99.557l1.085-.632.833-.9.967-1.488.442-1.728-.056-1.8.089-1.583-.14-1.583.19-1.577L.292,86.689.247,85.106l.112-1.577L.286,81.947.208,80.364V77.2l.157-1.583L.292,74.045.37,72.462.326,70.874l.05-1.583V67.715l.05-1.583L.382,64.549.219,62.9l.173-1.583L.231,59.734l.1-1.577.067-1.571L.247,55.015l.162-1.571L.3,51.872v-1.56L.365,48.74.247,47.169V45.6L.37,44.031V40.905L.1,39.345l.134-1.577-.145-1.56-.145-1.32.145-1.337L.762,32.4l.783-1.253,1.409-.123,1.186.828,1.37.945,1.085,1.275,1.174,1.174.945,1.37,1.04,1.314.772,1.482.9,1.376.856,1.42,1.029,1.3.962,1.342.777,1.465.928,1.359.9,1.376.755,1.23.912,1.118.559,1.314.492,1.337.375,1.376.615,1.465L21.5,58.23l.85,1.118.7,1.571L24.065,62.3l1.085,1.325,1.012,1.37,1.057,1.342,1.555,1.678.828,1.482.9,1.432.889,1.437.951,1.4.99,1.376.7,1.555,1.04,1.118,1.23.878,1.46.352,1.488.263,1.437-.514,1.253-1.012,1.118-1.158.654-1.325,1.029-1.079.638-1.342.912-1.152.828-1.219,1-1.085.895-1.2.856-1.241.654-1.359.794-1.275.733-1.314.761-1.292.939-1.18.867-1.23.85-1.219.621-1.365L57,55.563l.816-1.247.867-1.2L59.7,51.8l1.029-1.3.844-1.415.889-1.392L63.49,46.38l.828-1.432,1.029-1.359.833-1.482.917-1.42.951-1.409L69,37.9l1-1.376.928-1.32,1.247-1.035,1.118-1.118,1.4-.912,1.365-.615,1.247.665.844,1.186.162,1.32.045,1.32-.05,1.32V38.92l.207,1.611v1.583L78.421,43.7l.045,1.583.073,1.583-.168,1.588L78.3,50.037l.162,1.588L78.3,53.208l.073,1.588.123,1.583-.117,1.588-.089,1.577v1.583l.14,1.588.05,1.583-.157,1.588.067,1.583-.078,1.588.05,1.583v1.583L78.4,73.8l.05,1.588.067,1.583-.2,1.583.207,1.588-.134,1.583-.028,1.588L78.293,84.9l.134,1.588-.073,1.583v1.588l.067,1.583.028,1.516.067,1.51.235,1.454.375,1.42.912,1.118,1.152.9,1.46.285,1.454.363,1.611-.168,1.488-.257,1.37-.559,1.292-.761.727-1.325L91,95.284l.089-1.5.056-1.56-.028-1.571.05-1.56-.134-1.56v-1.56L91.11,84.4l-.19-1.56.1-1.56.028-1.571.028-1.56v-1.56l.039-1.571-.1-1.56.067-1.56.05-1.571-.173-1.56.14-1.56.056-1.56V64.068l-.145-1.56.067-1.56V59.376l-.028-1.56.145-1.56-.173-1.571.039-1.56-.039-1.56.089-1.527.028-1.571-.185-1.56V43.774l.056-1.56.123-1.56V39.065l-.185-1.571v-1.56l.162-1.555.028-1.571-.218-1.566.056-1.56-.028-1.566V26.55l.078-1.56.112-1.56-.1-1.571V20.3l.034-1.577-.05-1.571-.045-1.56.117-1.56-.162-1.571.117-1.566-.1-1.56.1-1.571L91.01,6.2l-.062-1.6L90.73,2.984l-.3-1.225-1.04-.665L87.923.725,86.491.2,85-.019,83.477-.058Z" transform="translate(12.956 0.058)" fill="#fff"/>
    </g>
    <g id="Group_10670" data-name="Group 10670" transform="translate(381.183 0.084)">
      <path id="Path_9974" data-name="Path 9974" d="M19.129.064,17.569.031,16,.064,14.437-.014l-1.56.078h-1.56L9.751.1,8.241.143l-1.5.2L5.21.193,3.7.316,2.218.674.725.9l-1.247.559-1.04.856-.5,1.292-.168,1.314-.1,1.325-.089,1.314v3.1l-.123,1.538.056,1.555v3.081l.157,1.538-.123,1.549.089,1.555V23.02l-.056,1.555-.028,1.538-.067,1.555.1,1.538L-2.44,30.76-2.468,32.3v1.549l.039,1.555-.1,1.538.157,1.555v1.538L-2.4,41.587v1.538l-.1,1.555-.123,1.538v1.549l.168,1.555-.173,1.538-.05,1.549.078,1.549-.134,1.549.123,1.549-.05,1.555-.173,1.538-.134,1.538.168,1.471-.207,1.471.157,1.46-.1,1.465.112,1.471-.112,1.465.14,1.465.028,1.577-.19,1.583.1,1.583v1.577l.05,1.583L-2.9,81.465l.039,1.577v3.143l-.089,1.583-.073,1.577.117,1.583V92.5l.045,1.281-.028,1.292.487,1.678.9,1.454,1.432.939,1.633.593,1.678.229H4.958L6.636,99.7l1.633-.867,1.337-1.241.867-1.275.28-1.51.123-1.549.056-1.555v-3.12l-.112-1.56.168-1.56V82.393l-.19-1.56v-1.56l.168-1.56V76.119l-.112-1.56L10.908,73l.157-1.571-.1-1.555-.123-1.555.067-1.571-.05-1.555.173-1.56L11,61.909l.727-1.571,1.247-1.163,1.549-.654,1.678-.358,1.488.2,1.482-.185,1.493.089,1.482.067,1.493-.039,1.482-.05h1.493l1.488-.028h1.583l1.588.162h1.583l1.588-.039,1.583-.056,1.588.028,1.588.117,1.583-.045H42.37l1.583-.112,1.365.229,1.337.336,1.258.6.923,1.057,1.012,1.253.917,1.32.945,1.314.85,1.376,1.007,1.269.856,1.387.85,1.376.917,1.337.844,1.392.749,1.443.5,1.56.777,1.163.967,1.018.615,1.258.643,1.2.85,1.392.632,1.488.9,1.348.738,1.437L65.3,87.18l.716,1.269.352,1.415.47,1.376.313,1.627.621,1.532,1.046,1.281,1.118,1.174,1.325.967,1.392.9,1.532.638,1.482.47,1.555.045h1.532l1.532-.112,1.56-.05,1.37-.665,1.241-.777.4-1.376-.145-1.415-.4-1.437-.878-1.32-.867-1.32-.783-1.365-.559-1.488-.8-1.359-.761-1.376-.816-1.359-.777-1.37-.783-1.376-.867-1.325-.816-1.443-.559-1.571-.912-1.387-.632-1.549-1-1.342-.677-1.527L70.9,70.3l-.615-1.454-.677-1.42L68.8,66.064l-1.174-1.079L67.066,64l-.4-1.118-.056-1.56-.056-1.555-.078-1.543.559-1.885,1.644-.99,1.258-.8,1.387-.559,1.3-.716,1.2-.895,1.32-.7,1.046-1.068,1.118-.984.923-1.118,1.085-.984.85-1.2.856-1.186.939-1.118.677-1.3.805-1.359.716-1.415.593-1.46L85.313,37l.408-1.532.3-1.571.213-1.571.157-1.46V29.4l.123-1.465.05-1.471-.162-1.46V23.541l-.263-1.454-.173-1.678-.475-1.622L84.927,17.2l-.677-1.532L83.574,14.4l-.749-1.23-.945-1.118-.805-1.2L80.23,9.621l-.923-1.169L78.356,7.3,77.238,6.283l-1.286-.772-1.23-.833-1.2-.895-1.387-.749-1.46-.649-1.51-.5-1.5-.531L66.07,1.183l-1.583-.168L62.905.864,61.334.814l-1.56.028-1.56.106L56.642.864h-1.56l-1.56.117L51.955.791,50.39.713l-1.56.129H47.264L45.7.6l-1.56.028h-1.56L41.011.556,39.451.45,37.891.6,36.32.439,34.759.383H33.2L31.639.45,30.1.243,28.507.361,26.947.294,25.387.12h-1.56l-1.56.056-1.571-.19Zm23,12.515h3.031l1.515.078,1.515.123,1.516.028,1.515-.173h1.515l1.516.123h1.633l1.611.252,1.549.559,2.237.47,1.627.168,1.488.682,1.443.761.285.3.66,1.454.9,1.314.783,1.37.8,1.365.822,1.37.263,1.577.173,1.549.453,1.493L71.5,28.9l-.173,1.37-.408,1.527-.526,1.493-.593,1.46-.738,1.4-.632,1.46-1.012,1.23-1.057,1.158-1.186,1.035-1.32.878-1.532.425-1.493.559-1.532.274-1.56.1-1.538.19-1.5.235-1.56-.078-1.549.19H50.037l-1.555.05-1.555-.078-1.583.05-1.583-.028-1.583.039H40.6l-1.577.14-1.583-.229H35.844l-1.583.157-1.583-.067-1.583.112-1.56-.112-1.6-.034H26.354l-1.583.05-1.583-.05h-3.16l-1.588-.067-1.515.067L15.4,43.684l-1.359-.408-1.325-.559L11.809,41.6l-.688-1.269-.168-1.443.067-1.678V35.53l.045-1.678-.112-1.678V30.5l.028-1.6v-1.6l-.05-1.6.078-1.6-.157-1.655V20.851l.028-1.6.073-1.577.375-1.516.733-1.348,1.079-1.057,1.348-.783,1.571-.129,1.56-.05,1.538-.117,1.532.089,1.538-.162h1.538l1.532.134,1.532.089,1.538-.2,1.538.19,1.532-.157,1.538.117,1.538-.112,1.532.134v-.162h1.516l1.516.039,1.515.056Z" transform="translate(3.022 0.014)" fill="#fff"/>
    </g>
    <g id="Group_10671" data-name="Group 10671" transform="translate(212.207 0.85)">
      <path id="Path_9975" data-name="Path 9975" d="M45.252.051h1.6l1.6-.056,1.577.313,1.538.33,1.163,1.057L53.456,3.1l.917,1.314.772,1.409L55.8,7.214l.71,1.348.755,1.325.61,1.409.7,1.359.559,1.432.665,1.376.716,1.342.7,1.493.727,1.471.682,1.493.856,1.409.71,1.488.638,1.515.755,1.46.878,1.392.738,1.465.688,1.292.643,1.32.71,1.269.749,1.253.761,1.241.71,1.275.559,1.493.85,1.387.453,1.56.755,1.42.559,1.5.559,1.515.71,1.443.559,1.5.682,1.465.559,1.527.615,1.493.716,1.454.559,1.527.85,1.387.487,1.555.7,1.443.85,1.23.632,1.348.727,1.3.794,1.258.7,1.314.749,1.281.794,1.258.716,1.3.71,1.314.559,1.56.772,1.46.755,1.471.632,1.538.822,1.437.749,1.471.727,1.3.688,1.32.643,1.348.593,1.365.777,1.275.559,1.4.665,1.337.727,1.3.71,1.314.308,1.454.213,1.465-.923,1.118-1.314.632-1.516.5-1.611.067-1.583.257-1.6-.14-1.538-.431-1.5-.514-1.5-.559-1.158-.85-1.118-.9-.895-1.118-.749-1.23L81.6,92.323l-.856-1.555-.66-1.678-.844-1.566-.369-1.454-.38-1.443-.369-1.46-.559-1.42-.738-1.37L75.9,79.1l-.654-1.42L74.517,76.3l-1.225-1.225-1.454-.895-1.555-.733-1.678-.324-1.392-.235-1.4.19-1.538-.162-1.532.213H61.207l-1.543.011h-3.07l-1.538-.19H53.518l-1.538.1-1.538-.078L48.9,73.2H47.361l-1.538-.039H44.285l-1.538-.14-1.538.207H39.666l-1.538-.089L36.59,73.2H35.058l-1.538-.14H28.906l-1.538-.05H25.831l-1.538.078-1.588.056-1.538.4-1.409.716L18.37,75,17.129,76l-.878,1.325-.939,1.342L14.976,80.3l-.056,1.767-.559,1.678-.682,1.627-.643,1.337-.559,1.37-.643,1.337-.682,1.314-.7,1.309L9.859,93.4l-.822,1.241L8.07,95.98,7,97.272l-1.454.844-1.488.755-1.6.487-1.611.5-1.678.3-1.678-.056-1.745-.408-1.471-1.012-1.158-1.325-.263-1.281.442-1.292.688-1.42.755-1.376.559-1.471.794-1.365.559-1.465.755-1.376.7-1.415.755-1.376.677-1.42.733-1.392.822-1.4.52-1.538.895-1.37.559-1.516.7-1.465.559-1.527L5.106,70.4l.8-1.482.777-1.493.783-1.488.638-1.4,1.063-1.118.677-1.387.727-1.3.867-1.23.487-1.42.643-1.342.61-1.365.6-1.37.805-1.269.067-.447.324-1.443.173-1.471.419-1.42.738-1.3.688-1.3.559-1.37.733-1.275.559-1.37L19.4,39.99l.727-1.275.682-1.3.5-1.37.638-1.32.828-1.219,1.018-1.18.6-1.437.716-1.365.867-1.292.52-1.465.71-1.37.559-1.454.688-1.527.951-1.365.665-1.516.71-1.488.816-1.437.744-1.465.677-1.51.727-1.482.733-1.292.559-1.376.677-1.32.828-1.241L37,5.5l.649-1.225.8-1.118.665-1.23,1.057-1.2L41.7.3l1.75-.308Zm-4.658,60,1.571.039,1.571-.145,1.571.117,1.549-.179,1.571-.123L50,59.709l1.538-.369,1.555-.173,1.571-.073,1.56-.157,1.56-.207h1.571l1.118-.19,1.577-.7.665-1.611V54.446l-.375-1.717L61.66,51.3l-.638-1.443-.8-1.353-.665-1.437L59,45.583l-.665-1.432-.755-1.281-.643-1.337-.665-1.325-.559-1.37-.559-1.359-.61-1.443-.7-1.409-.867-1.3-1.007-1.219-1.118-1.46-.47-1.37L49.6,28.068l-.632-1.286L48.3,25.512l-.9-1.118-1.415-.9-1.46.844-.772.878-.772,1.42L42.294,28.1l-.85,1.376L40.885,31,39.9,32.3l-.822,1.392-.716,1.46L37.451,36.5l-.761,1.432-.682,1.493-.733,1.454-.665,1.46-.671,1.476-.665,1.37-.654,1.387-.844,1.292-.632,1.4-.621,1.4L29.784,52l-.559,1.437-.57,1.415-.263,1.862.878,1.633.945.878,1.118.638,1.3.05,1.583.14h1.616l1.588-.078,1.583-.067Z" transform="translate(7.147 0.011)" fill="#fff"/>
    </g>
    <g id="Group_10672" data-name="Group 10672" transform="translate(91.89)">
      <path id="Path_9976" data-name="Path 9976" d="M60.49,0,58.935.123l-1.56.039h-1.56L54.26.218,52.7.274,51.14.235H49.585L48.03.285,46.465.207,44.9.073,43.35.291,41.789.14H40.235L38.675.123,37.114.2H34.005L32.445.24,30.89.291,29.33.2H27.775L26.221.313,24.649.1,23.095.28,21.534.157h-1.56L18.419.229,16.859.112,15.3.2,13.744.157,12.184.33,10.629.274H9.069L7.52.207,5.966.347,4.388.173H2.834L1.279.157-.281.268l-1.6.218L-3.519.559-5.1.956H-6.729l-1.3.962L-9.039,3l-.185,1.476L-9.43,5.945l.112,1.583-.045,1.588.073,1.6L-9.363,12.3l.123,1.6-.089,1.588-.1,1.588.134,1.588-.028,1.588v4.821l.078,1.588.056,1.6-.145,1.588.1,1.588-.117,1.588.05,1.588.117,1.6L-9.251,37.8l-.1,1.588.1,1.6.045,1.583-.168,1.588v1.6L-9.3,47.35l.056,1.6-.067,1.588h-.039l-.145,1.527.056,1.538v3.081l.039,1.538v1.538l.078,1.538-.157,1.538.045,1.538V65.91l.14,1.532-.229,1.538.073,1.549v1.532L-9.3,73.6v1.538l-.112,1.538.067,1.538v1.538l-.173,1.532.213,1.538-.14,1.549-.028,1.56V87.5l.14,1.56L-9.5,90.639l.123,1.56-.078,1.571-.073,1.571-.028,1.409.431,1.365.951,1.118,1.046,1.068,1.4.514,1.678.213,1.678.145,1.678-.162,1.65-.358.112-.229,1.152-.872.967-1.068.559-1.32.5-1.359L4.17,94.364V92.032L4.2,90.5V88.973l-.157-1.527.05-1.532-.078-1.527.045-1.532.1-1.532L4.087,79.8l.1-1.527V76.737L4.036,75.2l.05-1.527.1-1.532.157-1.516L4.293,69.1V67.566l.05-1.527.235-1.516V62.991l.028-1.476.274-1.488.162-1.5.71-1.65,1-1.118,1.3-.716,1.4-.559h3.059l1.56-.162,1.555-.028h3.115l1.555.112,1.555.067,1.555-.089,1.56-.028,1.555.067,1.555-.039,1.56.045,1.555-.039h1.555l1.56-.039,1.706.039,1.711-.14h1.717l1.471-.442,1.348-.733.973-1.2.7-1.337.5-1.577.14-1.678L44.479,45.6l-.38-1.627-.789-1.331-.979-1.258-1.325-.839-1.56-.336-1.325-.045-1.325.045-1.314-.034-1.538.229H32.389l-1.549-.218-1.549.134-1.555-.056-1.549-.073-1.549.134L23.1,40.169l-1.555.112H18.453l-1.549.1-1.555-.117-1.555.056-1.516-.056-1.555.1L9.22,40.2l-1.415-.559-1.174-.951L5.893,37.4,5.334,36.02l-.28-1.471L5,32.916l.235-1.622.1-1.622.14-1.622.347-1.6.162-1.622.1-1.633.067-1.622.073-1.633.067-1.387.112-1.4L6.8,15.91l.621-1.118.99-.856,1.342-.794,1.515-.386,1.56.089,1.571.045,1.577-.05,1.577.1H19.13l1.571-.157,1.577.05,1.571-.056,1.571-.045H27l1.577.157,1.577-.123h1.571l1.577.039,1.571.117,1.577-.157,1.577.157,1.577-.078h1.571l1.577.017,1.571-.067h1.56l1.583.067h1.566l1.443.073,1.454-.1h1.448l1.443.123h1.454l1.627.145,1.633.162h3.271l1.627-.078,1.622-.4,1.516-.615,1.309-1,.833-1.415.71-1.493.291-1.666.14-1.678-.464-1.4L69.9,2.1l-1.2-1.068L67.016.867,65.338.626l-1.6-.492L62.061.207Z" transform="translate(9.553)" fill="#fff"/>
    </g>
    <g id="Group_10673" data-name="Group 10673" transform="translate(149.009 377.869)">
      <path id="Path_9977" data-name="Path 9977" d="M18.708.06,17.087.127l-1.566.38L13.966.882l-1.6.218-1.543.5-1.583.487L7.7,2.727,6.3,3.683l-1.493.761L3.553,5.562,2.435,6.81,1.378,8.079.343,9.382-.725,10.674-1.413,12.2l-.867,1.432-.431,1.622-.2,1.65v1.678l.073,1.627v1.633l-.123,1.633v1.633l.369,1.583.38,1.583.682,1.532L-.5,31.141.763,32.26l1.225,1.118,1.118,1.04,1.158,1.018,1.2.962,1.37.71,1.359.727,1.337.761L11,39.049l1.443.559,1.571.157,1.516.252,1.538.089,1.538.045,1.532-.117,1.65.218,1.65-.1,1.633-.252,1.6-.4,1.583-.487,1.6-.442,1.51-.688,1.118-.6,1.152-.52,1.118-.962,1.3-.749,1.118-.99,1.007-1.118.805-1.253.772-.487,1.214-1.186.749-1.51.559-1.588.654-1.465.24-1.577.375-1.538.056-1.6-.14-1.583-.33-1.549-.559-1.488-.263-1.381-.173-1.163-.772-1.247L40.6,11.088l-.677-1.3L39,8.633l-.951-1.118L37.068,6.4l-1.325-.934L34.479,4.45l-1.365-.856-1.583-.638-1.594-.632-1.633-.5-1.6-.593L25.061.759,23.518.311,21.9.177l-1.588-.19ZM18.49,33.613l-1.454-.229-1.448-.162-1.426-.369-1.3-.665-1.337-.593-.878-.336-1.37-.386L7.91,30.4l-1.085-.984L6.031,28.2l-.643-1.3-.514-1.281-.61-1.253-.369-1.381-.207-1.37.117-1.482.1-1.488.475-1.409.487-1.409.794-1.253.749-1.292.923-1.163,1.3-1.04L9.861,9.964l1.4-.878,1.482-.733,1.5-.727,1.678-.14,1.762-.632L19,6.418h1.415l1.365.358,1.163.559,1.275.168,1.538.559,1.555.453,1.51.621,1.392.856,1.269,1.04,1.118,1.2.872,1.376L34.305,15l.794,1.437.453,1.571.347,1.583.112,1.622-.067,1.6-.4,1.583-.638,1.5L34,27.26l-.682,1.208-.727,1.342-1.241.928-1.443.33-1.359.6-1.432.408-1.348.615-1.42.408-1.443.347-1.46.168-1.488.073Z" transform="translate(2.956 0.013)" fill="#fff"/>
    </g>
    <g id="Group_10674" data-name="Group 10674" transform="translate(336.333 379.015)">
      <path id="Path_9978" data-name="Path 9978" d="M15.468.028,13.13.139,11.453.167,9.775.128,8.1.156,6.42.2,4.742.078,3.064.251H1.622L.257.743l-1.029.962-.682,1.269-.464,1.387-.229,1.454L-2.2,7.3-2.382,8.74l.056,1.46.067,1.516-.185,1.516.117,1.516.056,1.516-.1,1.516.112,1.51L-2.427,20.8l.185,1.516-.045,1.516-.05,1.516-.084,1.521v1.516l.1,1.515.2,1.5.117,1.51.347,1.471.47,1.622L.067,37.127l1.527.772,1.678.2,1.65.263,1.627.408H8.226L9.9,38.8h1.611l1.6-.073h1.6l1.6-.039h1.622l1.6.123,1.6.045,1.46-.073,1.46-.045,1.46-.145,1.37-.447,1.482-.1,1.42-.38,1.454-.168,1.23-.347.962-.822.218-1.325-.47-1.3-.805-1.118-1.409-.207-1.588-.168h-1.6l-1.577-.291-1.583-.24-1.588-.157-1.6-.078-1.6.112-1.6-.078-1.583.235-1.594-.039-1.577.039-1.588-.05-1.583-.2h-1.3l-1.269-.2-1.611-.66-.917-1.454-.157-1.454-.112-1.46L5.4,24.88l.6-1.325,1.2-.856,1.359-.559,1.465-.235,1.583.112,1.583-.1h3.2l1.583.19,1.555-.235,1.359-.755,1.225-.951.665-1.174-.028-1.337L21.9,16.637l-1.068-.85-1.376-.324H17.71l-1.75.168L14.2,15.513l-1.745-.034-1.8-.034L8.987,15l-1.678-.593L6.034,13.6l-.677-1.337L5.2,10.776,5.368,9.26l.99-1.18,1.269-.7,1.337-.5,1.42-.2,1.538-.157L13.46,6.6,15,6.537l1.538.067,1.538-.045,1.538-.028,1.549.168,1.532-.117L24.242,6.5l1.538.218,1.767-.185L29.264,6.1,30.858,5.3,31.915,4.16V2.689l-.839-1.337-1.353-.6L28.353.307,26.882.117,25.271.089,23.638.028,22,.251,20.372.028H17.107L15.468-.006Z" transform="translate(2.444 0.006)" fill="#fff"/>
    </g>
    <g id="Group_10675" data-name="Group 10675" transform="translate(616.941 378.987)">
      <path id="Path_9979" data-name="Path 9979" d="M4.756.207,2.894.107l-1.56.47L.137,1.7-.338,3.244-.623,4.625-.735,6.035l.056,1.409.117,1.627L-.707,10.7l.078,1.633v1.627l-.123,1.644.112,1.633-.112,1.633.213,1.678L-.685,22.23l.067,1.678-.05,1.678L-.6,27.263l-.1,1.678.056,1.678L-.7,32.335l.358,1.678v1.722l1.325,1.65,1.432.559,1.465.235,1.482.313,1.448.274,1.56-.134,1.555.1,1.56-.039,1.555-.05,1.6.067,1.56-.056,1.555.2,1.543-.106,1.549-.078H23.96l1.555-.1,1.678.056,1.678-.252,1.6-.5,1.644-.358,1.678-.783.5-1.79-.442-1.23L33,32.7l-1.292-.235-1.527-.347-1.532-.173H27.081l-1.532-.185L24,31.552,22.467,31.5l-1.6.078-1.6.028h-3.2l-1.6.067h-1.6l-1.6.039-1.275-.24L8.7,31.379l-1.381-.665-1.158-1.04L5.45,28.292,5.131,26.8l.414-1.488L6.3,23.98l1.2-.951L8.844,22.3l1.527-.28h1.678l1.678-.1,1.678.157,1.678-.117,1.538-.05,1.515-.285,1.359-.727,1.342-1,.38-1.644-.777-1.678-1.571-.962-2.338-.073H16.992l-1.538-.162H12.429l-1.549.089-1.762-.313-1.532-.828L6.468,12.991l-.391-1.415.05-1.46.324-1.432,1.068-1L8.788,6.9l1.488-.134,1.269-.073L12.837,6.5l1.633.056L16.1,6.51l1.633.05L19.363,6.5,21,6.6l1.633.112L24.262,6.6H25.89l1.644.073,1.281-.078,1.275-.162L31.5,5.777l.928-1.3L32.472,2.8l-.5-1.532L30.637.465l-1.6-.358-.7-.084H26.756L25.19.152,23.619.23,22.042.04,20.476.152,18.9.1H15.756L14.185-.016,12.619.152,11.048-.027l-1.577.1L7.9.152,6.328-.033Z" transform="translate(0.752 0.033)" fill="#fff"/>
    </g>
    <g id="Group_10676" data-name="Group 10676" transform="translate(81.718 377.885)">
      <path id="Path_9980" data-name="Path 9980" d="M18.763,0,17.236.185,15.743.47l-1.51.252L12.723,1l-1.432.559-1.443.52L8.535,2.88l-1.387.643L5.739,4.39,4.38,5.318,3.138,6.4,1.919,7.522.8,8.724l-.9,1.4-.783,1.46-.755,1.37-.419,1.516-.492,1.471L-2.9,17.47l-.067,1.454.078,1.454-.073,1.443.117,1.443v1.454l.263,1.46.492,1.392.52,1.37.833,1.2.967,1.118.755.85L2.048,33.33l1.2,1.085,1.23,1.035,1.3.9,1.359.85,1.454.688L10,38.67l1.527.5,1.577.313,1.571.3,1.577.291h1.611l1.633.162,1.46-.252,1.465.1,1.46-.145,1.471-.157,1.392-.487,1.471-.2,1.415-.559,1.37-.66,1.392-.632,1.18-.973,1.286-.783,1.219-.917,1.057-1.118,1.023-1.577-.375-1.767-.951-.828-1.247-.38-1.32.213-1.118.419-1.269.8-1.415.526-1.392.459-1.415.5-1.387.621-1.4.514-1.454.408-1.493.2-1.482.073-1.493.045L17.466,33.5l-1.493-.168-1.42-.47-1.437-.431-1.432-.453-1.281-.8-1.387-.559-1.3-.99L6.594,28.448l-1.04-1.269-.638-1.515L4.659,24l-.084-1.633.039-1.4-.129-1.4.229-1.387.218-1.471.487-1.437.844-1.342L7.3,12.728l1.035-1.174,1.118-1.118,1.359-.816,1.342-.833,1.42-.447L14.9,7.622l1.443-.408,1.46-.336,1.488-.112,1.471-.3,1.577.313,1.678.559,1.678.5,1.571.761,1.549.761,1.253.632,1.225.665,1.281.559,1.482.4,1.454-.47,1.2-.967.358-1.23L36.938,7.7l-.654-1.118-.951-1.118L34.3,4.474l-1.214-.867-1.3-.682-1.342-.559-1.37-.526-1.432-.358-1.392-.453L24.853.61,23.321.442,21.827.084,20.318,0Z" transform="translate(2.963 0)" fill="#fff"/>
    </g>
    <g id="Group_10677" data-name="Group 10677" transform="translate(395.633 377.874)">
      <path id="Path_9981" data-name="Path 9981" d="M19.225,0,17.637.078,16.1.459,14.555.721l-1.543.358-1.471.559-1.678.453L8.3,2.8,6.86,3.741,5.429,4.67,4,5.592,2.767,6.856l-1.012,1.4L.709,9.641-.41,10.933l-.559,1.516-.677,1.488-.447,1.555-.514,1.555-.285,1.6-.073,1.622-.073,1.611.123,1.644.207,1.627.447,1.577.621,1.515.833,1.409.9,1.359,1.118,1.2,1.118,1.035,1.118,1.118,1.174,1.007,1.365.749,1.3.822,1.292.872,1.432.6,1.465.47,1.443.5,1.493.313,1.471.431,1.532.213,1.571-.207,1.253.1,1.65-.1,1.678.039,1.644-.218,1.6-.246,1.37-.928.526.028,1.46-.47L31.6,37.9l1.258-.822,1.264-.733,1.275-.783.99-1.118,1.191-.895.878-1.532-.19-1.706-1.04-.755-1.208-.481-1.3-.073-1.432.514L32,30.338l-1.337.475-1.337.5L28.072,32l-1.314.559-1.152.828-.939.089-1.532.19-1.549.078-1.538-.19H16.965l-1.37-.308L14.1,32.631l-1.42-.8-1.571-.447-1.549-.4L9,30.489,7.8,29.46l-1.04-1.2-.945-1.275-.7-1.437-.464-1.527L4.3,22.464l.14-1.549L4.562,19.4l.218-1.51.5-1.443.559-1.437.923-1.23.772-1.342,1.046-1.118,1.2-.951,1.241-.895,1.247-.912L13.711,8l1.51-.274,2.237-.71L19.135,6.5l1.745-.162,1.745.162,1.633.593,1.325.621,1.392.47,1.269.738,1.325.621,1.292.71,1.225.8,1.32.492L34.8,11.5l1.258-.559.9-.984.134-1.32V7.315L36.32,6.3,35.4,5.413,34.318,4.189l-1.437-.772-1.471-.7-1.532-.559-1.387-.772-1.5-.47-1.538-.3-1.521-.4L22.34.056,20.791,0Z" transform="translate(3.038 0)" fill="#fff"/>
    </g>
    <g id="Group_10678" data-name="Group 10678" transform="translate(553.939 380.301)">
      <path id="Path_9982" data-name="Path 9982" d="M.449.83l-.52,1.622V3.626L.046,5.354l.28,1.722L.964,8.721l.889,1.5.71,1.32L3.435,12.8l.559,1.409.559,1.409.665,1.365.7,1.37.643,1.376.844,1.3.559,1.443.872,1.281.71,1.376L10.3,26.47l.559,1.46.895,1.269.794,1.325.71,1.37,1.46,1.8,1.241,1.118,1.6.4h1.678l1.348-.99L21.6,32.946l.777-1.2.772-1.2.872-1.118.643-1.292.615-1.275.749-1.437.928-1.331.7-1.471.733-1.443.85-1.392.727-1.437.688-1.465.559-1.532.6-1.51.285-1.6.28-1.571.688-1.253.677-1.46.755-1.42L35,4.968,35.686,3.5V1.876l-.9-1.269L33.32.1,31.81.657,30.563,1.825,29.406,3.106l-.749,1.532-.526,1.4-.654,1.342L26.649,8.62l-.52,1.415-.716,1.3-.738,1.3-.643,1.348-.643,1.275-.615,1.292-.464,1.4-.777,1.208-.643,1.275L19.77,21.672l-1.56.5-1.666-.313-1.23-1.2-.839-1.392-.856-1.387-.71-1.18-.671-1.208-.632-1.247-.436-1.337-.99-1.342-.7-1.493L8.714,8.586,7.932,7.138l-.721-1.5-.6-1.527L5.745,2.748,4.766,1.473,3.519.427,1.842-.132Z" transform="translate(0.071 0.132)" fill="#fff"/>
    </g>
    <g id="Group_10679" data-name="Group 10679" transform="translate(460.503 379.037)">
      <path id="Path_9983" data-name="Path 9983" d="M2.226.188.638,1.144l-.99,1.6L.162,4.4l1.454.939L3,5.9l1.471.257L6.1,6.368H7.74l1.627.05,1.622.369,1.365.912L13.36,9.085l.431,1.432.168,1.516v1.583L14,15.2V18.38l-.039,1.588-.168,1.583.129,1.571.1,1.577v1.588l-.1,1.588.067,1.437.1,1.437.134,1.42.425,1.37.4,1.381.923,1.555,1.644.682,1.281-.056.912-.973.66-1.118.492-1.32.24-1.342.168-1.387.213-1.387.045-1.588V26.4l-.1-1.588-.1-1.588.089-1.583-.1-1.6.24-1.583-.056-1.588V15.293L21.419,13.7V12.072l.185-1.627.447-1.488.962-1.174,1.241-.895,1.488-.442L27.151,6.4l1.4-.089,1.392-.067,1.314-.285,1.23-.47L33.6,4.763l.833-1.051.129-1.337-.984-1.007-1.527-1L30.232.009,28.6.087l-1.627.05H23.7L22.067.227,20.429.138,18.8.037,17.169.188V.043l-1.6.067L13.947.026,12.354.138l-1.6-.078-1.6.028-1.6-.05-1.616.1L4.323-.03Z" transform="translate(0.352 0.03)" fill="#fff"/>
    </g>
    <g id="Group_10680" data-name="Group 10680" transform="translate(278.772 380.463)">
      <path id="Path_9984" data-name="Path 9984" d="M2.455.046,1.04.605.184,1.835-.14,3.362l-.1,1.555v1.56l.1,1.549-.213,1.56.185,1.555L-.28,12.7-.336,14.25-.3,15.8l.045,1.555h0l-.1,1.571.157,1.577-.056,1.577L-.3,23.656l.123,1.583-.213,1.577.039,1.571v1.577l.229,2.326L.229,33.8l.9,1.253,1.2.85,1.443.492,1.465.336,1.471.291,1.493.089,1.588.24,1.588-.162,1.6.039,1.588.213,1.6-.207,1.588.14,1.6.039,1.588-.145,1.583-.1,1.616-.106,1.583-.2,1.571-.28,1.577-.218,1.3-.19,1.236-.341,1.046-.777.682-1.018-.05-1.253-1.118-1.219-1.482-.7-1.471.19-1.437-.363-1.471-.1-1.454-.24-1.471-.039-1.46-.263-1.5.084-1.5.039-1.493-.145-1.5.073-1.493-.073-1.5.117-1.493-.2-1.678-.2-1.471-.805-.816-1.5L7.1,25.77l-.084-1.482L6.985,22.8l.173-1.5-.1-1.471.084-1.488L7.1,16.856l.112-1.493-.2-1.482L7.2,12.31l-.162-1.549L7.158,9.2,7.08,7.629l-.106-1.56-.2-1.549-.28-1.543L5.816,1.757,5.128.56,3.836-.01Z" transform="translate(0.386 0.01)" fill="#fff"/>
    </g>
    <g id="Group_10681" data-name="Group 10681" transform="translate(221.44 380.491)">
      <path id="Path_9985" data-name="Path 9985" d="M1.59.227l-1,1.264-.4,1.56-.24,1.482.028,1.5V7.525L-.188,9.018l-.05,1.488L-.065,12l-.14,1.493.089,1.493.045,1.493-.134,1.493L-.25,19.6l.073,1.633v3.277l-.028,1.627.089,1.633L0,29.161l.1,1.4.162,1.392v1.4l.727,1.678,1.56.984,1.5.213,1.42.559,1.51.145,1.493.213,1.5.05,1.5.056H12.92l1.443-.05,1.443.067,1.437-.123,1.426-.067,1.432.24,1.51-.045L23.075,37l1.5-.028,1.471-.252,1.471-.263,1.471-.274,1.471-.213,1.773-.57.28-1.862-.559-1.717-1.56-.895-1.678-.229-1.728-.045-1.678-.19-1.756-.207-1.717-.028-1.678-.073-1.678-.145-1.678-.056-1.678-.028-1.678.19-1.678-.162H10.3l-1.32-.7-.895-1.118-.755-1.118-.514-1.281L6.74,24.352l-.067-1.538.14-1.549L6.74,19.738l-.067-1.549.134-1.538L6.768,15.1,6.74,13.587l-.1-1.566.1-1.538L6.662,8.945,6.74,7.368,6.623,5.8,6.556,4.214,6.31,2.659,5.8,1.233,4.783.076,3.206-.036Z" transform="translate(0.25 0.036)" fill="#fff"/>
    </g>
    <g id="Group_10682" data-name="Group 10682" transform="translate(520.363 380.284)">
      <path id="Path_9986" data-name="Path 9986" d="M1.4.046.635,1.528.5,3.071.17,4.587.014,6.119-.031,7.668-.165,9.206v4.563L0,15.279v1.516L-.07,18.3,0,19.82l-.028,1.51L-.2,22.846l.1,1.527v1.515l-.117,1.706.28,1.678.33,1.678L.7,32.626l.117,1.717.833,1.633,1.823-.324,1.3-1.068L5.656,33.2l.263-1.678V29.987l.073-1.527V26.933L5.88,25.4V23.875l.134-1.527-.168-1.532V19.3l.173-1.516H5.875V16.2l-.089-1.571L5.9,13.059V11.488L5.83,9.922V8.345l.039-1.588V5.2L5.8,3.927l.045-1.292L5.265,1.366,4.286.46,3.006-.01Z" transform="translate(0.221 0.01)" fill="#fff"/>
    </g>
    <g id="Group_10683" data-name="Group 10683" transform="translate(487.715 175.183)">
      <path id="Path_9987" data-name="Path 9987" d="M38.661.251,40.149.016l1.493.039,1.5.056,1.5.073,1.493.14L47.609.6,49.079.86l1.5.056,1.5.106,1.348.4,1.3.5L56,2.465l1.32.447,1.476.425,1.488.347,1.46.414,1.387.665,1.443.453L66,5.776l1.454.47,1.32.677,1.387.5,1.342.61,1.342.615,1.314.66,1.258.761,1.325.643,1.23.805,1.314.738,1.208.9,1.37.632,1.118.973,1.063,1.281.895,1.376.1,1.644-.5,1.577-.967,1.359-1,1.275-1.007,1.37-1.465.856-1.583.559-1.678.028-1.6-.5-1.571-.615-1.448-.839-1.37-.951-1.387-.923-1.482-.777L66.561,20.6l-1.616-.638-1.566-.643-1.706-.229-1.337-.257L59.022,18.4l-1.314-.688-1.32-.688-1.42-.431-1.348-.643-1.488-.19L50.7,15.2l-1.493-.24-1.488-.285-1.5-.168-1.493-.257-1.5-.24-1.678.089H39.863l-1.678-.168-1.678.168L34.83,13.98l-1.678-.028-1.678.213-1.571.168-1.6.1-1.5.559-1.538.375-1.426.481-1.577.559L20.967,17.52l-1.437.9-.761.442-1.437.526-1.281.777-1.007,1.118-.878,1.269L13.272,23.8l-.559.99-.134,1.532-.073,1.538.291,1.51.352,1.471.492,1.443.777,1.32.99,1.174L16.56,35.79l1.348,1.085,1.359,1.079,1.465.928,1.51.867,1.538.526,1.56.431,1.577.3,1.611.257,1.678.14,1.678.157,1.678.14,1.6.559,1.275.089,1.275.168,1.633.067,1.633-.1,1.633.173h1.644l1.678-.151,1.622.291,1.627.123,1.633.073,1.443.3h1.488l1.46.185,1.454.28,1.471.1,1.454.257,1.678.492,1.678.263,1.678.3,1.678.431,1.583.682,1.516.526,1.622.285,1.348.559,1.314.66,1.409.431,1.392.464,1.555.828,1.583.783,1.549.816,1.118,1.342,1.32,1.118,1.158,1.275,1.063,1.32.816,1.292.794,1.3.559,1.4.487,1.437.559,1.415.38,1.488.352,1.51.347,1.51.112,1.555.14,1.538.162,1.538.162,1.549-.14,1.549.039,1.555-.123,1.549-.173,1.465-.185,1.5L89.517,83.2l-.526,1.387-.777,1.269L87.6,87.015l-.66,1.158-.263,1.314L86.341,90.9l-.66,1.3-1.007,1.063-.99,1.269-1.258.984-1.118,1.158-1.253.984-1.314.917-1.348.844-1.275.951-1.365.833-1.46.66-1.493.559-1.488.716-1.583.475-1.482.749-1.571.559-1.588.431-1.6.38-1.516.408-1.488.559-1.583.123-1.516.431-1.555.252-1.577.089-1.571.089-1.56.291-1.577-.14-1.588.067-1.583.173H43.789l-1.588-.134L40.613,108l-1.577-.252-1.588.073-1.583-.347H34.277l-1.56-.336-1.5.028-1.5-.229-1.454-.246-1.46-.352-1.42-.459-1.471-.28-1.409-.5-1.409-.727-1.488-.5-1.493-.5-1.387-.761-1.471-.559-1.454-.615-1.432-.654-1.437-.643L9.492,99.5l-1.516-.453-1.437-.643-1.482-.833-1.471-.844-1.46-.872L.6,95.1l-1.42-.923-1.488-.816-1.337-.945-1.018-1.275-.856-1.387-.559-1.443-.028-1.538.492-1.443.7-1.359,1.118-1.057,1.152-1.007,1.23-.895,1.415-.559L1.478,80.1l1.4-.123,1.337.431,1.314.514,1.247.917,1.4.677,1.532.218,1.253.453,1.079.761,1.174.615,1.465.682,1.465.682,1.488.632,1.409.8L20.525,88l1.46.777,1.538.621,1.577.487,1.549.6,1.627.336,1.454.4,1.4.61,1.5.252,1.471.308,1.488.257,1.46.442,1.5.168,1.5.185,1.482.313,1.465.117,1.46.218,1.488-.1,1.443.336,1.482.05,1.46-.274,1.622-.056,1.577-.369,1.633-.134,1.5-.643,1.571-.4,1.678-.475,1.622-.61,1.622-.621,1.555-.783,1.46-.8,1.314-1.035,1.443-.833,1.163-1.2,1.2-1.158,1.241-1.118,1.04-.889,1.007-.945.772-1.118.61-1.387.358-1.471.067-1.51.1-1.51.039-1.583V71.876l-.4-1.521-.285-1.56-.833-1.37-.9-1.253-.928-1.258L72.17,63.695l-1.186-1.04-1.2-1.04-1.376-.783-1.432-.749L65.5,59.417,64,58.858l-1.555-.442-1.538-.492-1.454-.112-1.392-.347L56.623,57.3l-1.359-.5-1.5-.341-1.532-.358L50.7,55.8l-1.555-.123-1.538.106-1.549-.1L44.5,55.62H42.928l-1.549-.073-1.543-.218H38.281l-1.538-.173-1.549-.28-1.566-.045-1.543-.324H30.507l-1.56-.117-1.56-.129L25.8,54.149l-1.6-.33-1.588-.358-1.549-.5L19.5,52.5l-1.532-.531L16.381,51.6l-1.51-.526-1.516-.559-1.6-.257-1.577-.213-1.359-.828L7.4,48.484l-1.258-.967L5.107,46.281l-1.2-.895-1.04-1.023-.889-1.208L.947,42.036l-.71-1.32-.856-1.23-.638-1.365-.559-1.527-.5-1.549-.453-1.56L-3.063,31.9V30.287l-.117-1.762V26.78l.056-1.465.324-1.42.4-1.387.4-1.409.783-1.23.654-1.3.8-1.281,1.007-1.118.895-1.208.805-1.275,1.063-1.068.811-1.247,1.029-1.163,1.23-.951L8.2,8.192l1.387-.71,1.3-.867,1.348-.772,1.359-.761,1.51-.514,1.465-.593,1.46-.665L19.6,2.98l1.516-.447,1.476-.61,1.482-.559.9-.2L26.5,1.073l1.538-.045L29.518.62,31.061.553l1.51-.2L34.075,0,35.6-.04l1.527.173Z" transform="translate(6.105 0.04)" fill="#fff"/>
    </g>
    <g id="Group_10684" data-name="Group 10684" transform="translate(647.43 177.487)">
      <path id="Path_9988" data-name="Path 9988" d="M57.012.172,55.457.049,53.9.189H52.342L50.782.133,49.233.088,47.678.133l-1.56.073L44.563.133,43,.044H41.448L39.894.172,38.339.133,36.784.077,35.2.184,33.669.133l-1.56-.05H30.555L29,.038,27.44.161,25.891.038l-1.56.14L22.776-.029H21.221l-1.56.162L18.106.06h-1.56L15,.133,13.437.055,11.882.1H10.327L8.767.033,7.24.133H5.68L4.1.021H1.145l-1.4-.045H-1.662l-1.65.274-1.65.285-1.465.822L-7.674,2.476l-.816,1.465-.358,1.672V7.291l.1,1.555L-8.7,10.4v3.137l-.235,1.588.078,1.588L-8.893,18.3l.145,1.588-.089,1.583.045,1.588-.073,1.583.089,1.588-.145,1.588.145,1.583.073,1.588-.073,1.583L-8.8,34.156v1.583l-.123,1.583.207,1.588v1.583l-.157,1.588v1.583l.073,1.588V46.84l-.028,1.583V50.01l.145,1.588h-.252l.028,1.583.078,1.583-.145,1.622.078,1.577.1,1.583v1.583l-.179,1.583.117,1.583-.134,1.577.145,1.583-.129,1.588v1.583l-.028,1.583.112,1.577v1.583l.078,1.583v1.583L-8.977,80.1v1.588l.112,1.583-.112,1.583.213,1.583-.213,1.577L-8.8,89.6v1.583l-.173,1.594V96.13l.1,1.75.285,1.516.783,1.32,1.079,1.063,1.348.677,1.488.285h1.627l1.633.056,1.555.185,1.56-.218,1.571.1,1.555.089,1.56-.039,1.571-.028,1.555.1,1.56-.123,1.571.05,1.555-.14,1.56.235,1.571-.229,1.555.14,1.56-.067,1.56.067,1.56.056,1.56-.207,1.56.112,1.56-.028,1.56-.028,1.56.067,1.56-.1,1.56.157,1.56-.05,1.56.078,1.56-.145,1.56.056,1.56.05,1.56-.056,1.56.045,1.56-.039,1.56.117,1.56-.134,1.56.117,1.555-.2,1.571.112,1.56-.1h1.555l1.571.1,1.56.028,1.555.056,1.571-.207,1.56.045,1.555.14h3.087l1.5-.24,1.432-.386,1.392-.61.867-1.269.442-1.437.308-1.488.173-1.516L77.082,94.5l-.38-1.465-.425-1.3L75.119,91l-1.493-.761L72,89.738H68.755l-1.571.073-1.56-.112-1.577-.028-1.56.078-1.56-.14-1.56.173-1.594-.173-1.56.168H54.64L53.1,89.755,51.52,89.7l-1.56-.14H48.388l-1.56-.05-1.577.218H43.668l-1.56-.117-1.56.028-1.577-.185-1.56.157-1.571.05-1.56-.05-1.577-.19-1.56.19-1.571-.185-1.56.078-1.577.039-1.56-.073L23.3,89.3l-1.56.145H20.164l-1.56-.123-1.571.078-1.56-.1-1.644.14L12.2,89.363l-1.555-.352-1.493-.47-1.275-.872-.867-1.292L6.7,84.828l-.117-1.571V81.646l-.157-1.6.123-1.616-.123-1.611.1-1.6L6.6,73.6V70.372l-.039-1.611-.05-1.521V64.2l.123-1.51-.123-1.527V59.652l.235-1.527.643-1.392L8.5,55.692l1.23-.912,1.5-.375h1.722l1.678-.162,1.706-.19,1.622.134h1.622l1.6-.05,1.622.1,1.611-.05,1.611-.134h1.611l1.622.145,1.6-.05,1.622.05,1.611-.134,1.622.117L37.3,54.1l1.571-.162,1.583-.028,1.538-.38,1.555-.28,1.247-.632.559-1.253.089-1.454.24-1.437.089-1.409-.14-1.46-.363-1.532-.939-1.225L43,42.142l-1.482-.453-1.4-.173-1.409.067-1.532.157H35.644l-1.56-.022H32.545l-1.532.073-1.538-.207-1.538.173-1.516-.073-1.538.039-1.543-.207-1.538.229-1.538-.1H18.727L17.195,41.6l-1.538.112-1.538-.028-1.538-.1-1.281.157-1.292-.123-1.532-.559L7.24,40.012l-.828-1.376-.352-1.348L5.63,35.963V33.055l.134-1.51v-1.5l-.2-1.5.112-1.5-.112-1.5v-1.51L5.6,22.5,5.641,21V19.477l.347-1.493.733-1.325.967-1.2,1.409-.61,1.5-.324,1.532-.067,1.555-.162,1.532.235,1.555-.039,1.538-.045,1.555.117,1.549-.045,1.538.067,1.555-.123,1.538.073H27.6l1.549-.039,1.549-.078h1.549l1.538-.145h1.555l1.538-.056,1.549.112h1.549l1.549-.045,1.51-.106,1.549.134h1.566l1.538-.2h1.549l1.549-.073,1.549-.056H53.88l1.549.112,1.549-.045,1.538.078H61.6L63.163,14H64.74l1.555-.207,1.538-.336,1.745-.559,1.415-1.186,1.186-1.376L72.6,8.857l.112-1.527L72.972,5.8,72.7,4.048l-.856-1.5L70.629,1.313,69.136.43,67.458.245,66.037.133h-1.4l-1.4.028L61.675.077,60.126.049,58.566,0Z" transform="translate(9.005 0.029)" fill="#fff"/>
    </g>
    <g id="Group_10685" data-name="Group 10685" transform="translate(1.033 177.537)">
      <path id="Path_9989" data-name="Path 9989" d="M6.265.106,4.873.151,3.491.335l-1.683.3L.785,2.03.421,3.663.349,5.217.2,6.789.175,8.349.36,9.909v1.56L.192,13.024.242,14.6.13,16.156-.076,17.71-.5,19.22-.378,20.8-.5,22.369V25.54l-.073,1.577L-.613,28.7l.056,1.577L-.4,31.859-.5,33.43l.05,1.583V39.75l-.039,1.583.073,1.583L-.6,44.492v1.583l.089,1.577.045,1.583-.078,1.577L-.5,52.394l.028,1.577-.1,1.583L-.63,57.136l.14,1.583L-.652,60.3l.117,1.583-.05,1.577.14,1.583-.123,1.577L-.68,68.2l.112,1.583-.117,1.577-.078,1.577.134,1.583V76.1l-.145,1.577.05,1.583L-.977,80.83l.145,1.51-.045,1.5.117,1.493-.162,1.5.123,1.5v1.5l-.19,1.493.112,1.583L-.8,94.509l.19,1.571.24,1.571.358,1.532.475,1.51.856,1.325,1.42.677,1.454.14,1.46.056,1.454-.14,1.46-.056,1.678-.593,1.314-1.118.833-1.538.688-1.571.14-1.717.089-1.706V91.321l.157-1.56V88.184l.05-1.571-.1-1.56-.117-1.571V81.9l.078-1.56.045-1.571V75.635l-.14-1.571V72.5l.056-1.571.112-1.571.05-1.571-.089-1.571-.05-1.56.1-1.571V61.509l.017-1.868.112-1.862.3-1.37.7-1.253,1.118-.884,1.118-.833,1.4-.336,1.549-.162,1.538-.089,1.56.134,1.538-.117,1.549-.073H27.51l1.549-.089,1.555.045,1.622-.112h1.627l1.633.089h1.627l1.627-.045,1.633.162,1.633.028,1.666-.179,1.622.028,1.6.073,1.622.05,1.611-.162,1.627.2,1.622-.24,1.627.162h3.244l1.622.045,1.627-.1,1.611.1,1.627.073,1.611.2,1.46.308,1.3.7,1.068,1.012.794,1.275.263,1.454.308,1.409.257,1.443-.1,1.465.05,1.549.067,1.555-.045,1.555.1,1.555-.168,1.549.078,1.555-.213,1.549.162,1.56-.145,1.549-.039,1.555-.117,1.549.078,1.56-.028,1.549-.134,1.555-.067,1.549.078,1.56-.073,1.549.039,1.555.089,1.555-.056,1.549.134,1.482.05,1.482.028,1.482.559,1.611.727,1.532,1.269,1.118,1.588.559,1.678.263h1.633l1.644.073,1.6-.229,1.42-.777,1.118-1.118.7-1.437.4-1.56-.028-1.516.045-1.515-.056-1.583V89.962l.073-1.583L85.9,86.8l.117-1.577-.039-1.583V82.066l-.1-1.577.056-1.583-.05-1.583.045-1.583V74.164l-.078-1.577L85.972,71l-.117-1.577.168-1.577-.078-1.583-.028-1.577.1-1.583-.1-1.577-.073-1.577V58.372l.089-1.577-.1-1.577L86,53.635l-.073-1.583V50.47L86,48.893V44.1l.078-1.577.168-1.577-.173-1.6.05-1.583.078-1.583.067-1.588.089-1.588.028-1.611-.05-1.588-.1-1.583.078-1.583.1-1.588-.1-1.588-.034-1.577L86.4,20.3l-.05-1.588-.117-1.583-.05-1.588.028-1.588.168-1.583-.1-1.588-.112-1.588V6.073l-.28-1.521L85.535,3.21l-.7-1.219L83.7,1.2,82.2.52,80.631.033,79,.168,77.354.2,75.822.755l-1.2.453-1.063.727L72.824,3,72.2,4.233,71.985,5.6,71.7,6.968l.173,1.555v1.56l-.05,1.555V13.2l.067,1.555L71.756,16.3l.056,1.56-.168,1.56.1,1.56-.1,1.555v1.555l.134,1.56L71.644,27.2l.24,1.56v1.555l-.078,1.75-.453,1.706-.369,1.678-.33,1.722L69.536,38.5,68.1,39.14l-1.493.447-1.527.352-1.549.134H60.337l-1.583.073-1.583.073-1.583-.028-1.577-.145-1.583.078-1.583.05H49.275l-1.583-.056-1.583-.157-1.577.14L42.95,39.99l-1.583.1-1.577.112-1.583-.235-1.583.14-1.583-.073-1.577.185-1.583-.056-1.622-.106-1.577.14-1.571-.028-1.538-.291-1.538-.285-1.56-.073-1.555-.19L19.4,39.168h-1.56l-.442-.185-1.538-.5-1.118-1.152-.833-1.359-.33-1.555-.19-1.4.173-1.4-.185-1.4.045-1.532.145-1.532-.112-1.532.073-1.532-.045-1.538V19.494l-.14-1.521.1-1.532.039-1.538V10.3l.045-1.527V7.242l-.168-1.532-.1-1.521L12.775,2.74l-.906-1.264-1.376-.7L9.072.145,7.68-.017Z" transform="translate(0.988 0.017)" fill="#fff"/>
    </g>
    <g id="Group_10686" data-name="Group 10686" transform="translate(-0.002 177.442)">
      <path id="Path_9990" data-name="Path 9990" d="M5.1.227,3.7.266,2.13.926.944,2.044.665,3.722.62,5.293.5,6.876.559,8.431V9.985L.447,11.557l.089,1.56-.19,1.532L.229,16.2l-.134,1.56-.442,1.51v1.583l.028,1.583v1.577L-.2,25.6v1.577l-.067,1.583.123,1.583-.185,1.583L-.252,33.5l-.1,1.583V36.66l.123,1.583V41.4l-.028,1.583v1.577l.045,1.583v1.577l.05,1.583L-.23,50.881l-.134,1.583.073,1.577.157,1.583-.078,1.583v1.583l-.1,1.577L-.42,61.949l.173,1.583-.112,1.583L-.269,66.7l-.123,1.577.05,1.583L-.51,71.433l.028,1.577.067,1.583v1.583l-.1,1.577-.14,1.577.028,1.583V82.4l-.185,1.51.05,1.493.1,1.5-.112,1.493v1.5l.157,1.51L-.733,93v1.588L-.5,96.162l.308,1.549L.1,99.282l.615,1.465.777,1.376,1.454.61,1.454.185,1.46-.089,1.443-.05,1.454-.134,1.739-.386L11.754,101,12.8,99.562l.38-1.678.3-1.678L13.454,94.5l.218-1.56-.05-1.571L13.449,89.8l.213-1.571-.028-1.571v-1.56l-.117-1.577.14-1.56.056-1.571-.235-1.571.168-1.571-.117-1.571.089-1.571-.028-1.56-.028-1.571-.045-1.577.213-1.56L13.65,66.26l-.045-1.56V63.123l.162-1.571-.173-1.868.19-1.857.442-1.32.615-1.292,1.118-.85,1.118-.844,1.409-.218,1.527-.3H21.6l1.555.028,1.538-.067,1.549-.1,1.51-.134,1.549.123,1.571-.123,1.622.067,1.627.123,1.633-.078h1.627l1.627-.028,1.633-.056,1.65-.028,1.627.19,1.611-.123,1.611.157h1.622l1.611-.1,1.622-.14,1.627.213,1.622-.168,1.627.14,1.611-.073,1.627-.028,1.622.157h3.249l1.611.213,1.471.263,1.348.66.973,1.118L71,56.552l.559,1.342.2,1.443.229,1.443-.117,1.46.173,1.549.089,1.555L72.039,66.9l-.117,1.555V70l.056,1.555v3.109l-.05,1.555-.168,1.555v3.1l-.2,1.549v1.555l.089,1.555-.1,1.555-.067,1.555.185,1.549-.14,1.56.056,1.549-.039,1.482.067,1.482.185,1.471.442,1.678.805,1.5,1.348,1.018,1.5.738,1.678.134,1.633.134,1.627-.19,1.633-.039,1.376-.85,1.281-1.007.727-1.482.28-1.6.028-1.527.039-1.516V93.148l-.056-1.583v-3.16l-.056-1.577.05-1.577.039-1.583.067-1.583-.039-1.577.039-1.583-.028-1.577-.045-1.583V74.19l.039-1.577-.1-1.583V69.453l.134-1.577-.117-1.583-.067-1.577.162-1.583.028-1.577-.168-1.577.168-1.583-.05-1.583-.028-1.577-.056-1.583.078-1.577V50.5l.1-1.577.157-1.577-.168-1.583.179-1.583-.145-1.583.257-1.571V39.434l-.112-1.594L86.4,36.252l.089-1.583.112-1.588L86.545,31.5l.028-1.588.05-1.588-.157-1.594L86.7,25.14l-.089-1.583-.14-1.583V18.788l.112-1.583.045-1.588-.185-1.588.123-1.583-.1-1.594.1-1.583-.162-1.555V6.143l-.2-1.538L85.84,3.241l-.867-1.118-1.118-.833-1.4-.783L80.835.266H79.225L77.592.322l-1.577.4-1.174.559-1.118.71-.844,1.018-.453,1.32L72,5.657l-.073,1.387L71.983,8.6l.1,1.56.039,1.555-.173,1.555.168,1.56v1.555l-.1,1.56v1.549l.1,1.555-.218,1.56.134,1.555-.112,1.56.028,1.555v1.555l.213,1.56-.157,1.745-.308,1.722-.447,1.678-.487,1.678-.967,1.42-1.527.38-1.46.559-1.46.6H63.768l-1.583-.039-1.583.134H59.026l-1.639.006L55.8,40.161l-1.577.028-1.583-.134-1.577.1-1.577-.067H47.908l-1.583.2H44.743l-1.577-.24-1.583.24L40,40.239l-1.577-.2-1.583.045-1.583.19H33.681L32.1,40.122h-3.16L27.385,40l-1.571.039-1.538-.3-1.56-.112-1.555-.168-1.538-.145-1.555-.157-.464-.028L16.049,38.6,14.886,37.46l-.761-1.409L13.639,34.5l.129-1.4-.089-1.4V30.3l-.123-1.532.213-1.538L13.678,25.7l.089-1.532-.05-1.538L13.639,21.1l-.056-1.532.185-1.51V16.523L13.667,15l.056-1.532.112-1.532-.067-1.56-.05-1.532.05-1.521V5.758l-.28-1.493L13.04,2.794,12,1.675,10.764.758,9.294.294,7.9.087,6.5-.036Z" transform="translate(0.806 0.036)" fill="#fff"/>
    </g>
    <g id="Group_10687" data-name="Group 10687" transform="translate(338.531 177.47)">
      <path id="Path_9991" data-name="Path 9991" d="M13.479,35.071l-.022,1.555-.117,1.532-.039,1.51.173,1.532-.045,1.521-.112,1.532.089,1.532v1.527l.078,1.532-.039,1.527L13.417,51.9l.067,1.532L13.3,54.957l.112,1.532L13.3,58.016l.134,1.538v1.532l-.173,1.527v1.532l.14,1.527-.028,1.711.218,1.678.185,1.678.3,1.527.408,1.5.526,1.471.967,1.247.761,1.359.967,1.225,1.247.951,1.225,1.342,1.32,1.186,1.482.962,1.493.923,1.65.559,1.678.514,1.571.028,1.583.078,1.56.252,1.56.173,1.577.123,1.577.078,1.571.1,1.577.173,1.571-.117h1.678l1.678-.1,1.644-.229h1.678l1.644-.252,1.65-.168,1.65-.207,1.5-.447,1.538-.447,1.549-.5L59.6,83.31l1.337-.917L62.2,81.364l1.186-1.118.923-1.225.962-1.163.951-1.186.783-1.292.761-1.325.559-1.627.464-1.678.257-1.678.134-1.717.05-1.717.145-1.532-.14-1.532.123-1.527V59.515l-.14-1.532.157-1.532V54.918L69.262,53.4l.185-1.532-.123-1.532-.056-1.532.089-1.527.117-1.532-.1-1.532-.028-1.532V41.15l.173-1.527-.134-1.532.1-1.577-.112-1.566-.073-1.577.213-1.577-.1-1.583.05-1.577V27.057l-.1-1.566.19-1.577V22.343l-.19-1.577V19.189l.145-1.571-.039-1.577-.112-1.577V12.892l.173-1.577-.162-1.577-.05-1.571.028-1.577-.028-1.571.028-1.577.112-1.577L69.53.008l.447-1.79.755-1.409,1.118-1.174,1.493-.665,1.6-.347,1.325-.039h1.325l1.3.274,1.678.252,1.493.816L83.08-2.716l.638,1.555L84.053.662l.207,1.845V4.09l-.078,1.583.134,1.577-.05,1.583v1.583l.1,1.577-.056,1.583-.045,1.583.218,1.577-.173,1.583.134,1.583-.162,1.583.185,1.577-.045,1.583-.134,1.583.028,1.577L84.3,29.356l.067,1.583v1.583L84.2,34.1l.039,1.583.1,1.583-.173,1.555-.1,1.56.123,1.56-.168,1.555V45.07l.089,1.56-.162,1.56-.089,1.56.173,1.56-.14,1.56-.067,1.555.213,1.56-.168,1.56.067,1.56-.19,1.555v1.56l.039,1.5-.162,1.493.123,1.5-.218,1.493.14,1.51-.134,1.493-.2,1.488L82.823,74.9l-.492,1.443-.313,1.482-.526,1.5-.285,1.588-.772,1.415-.559,1.493L79,85.166,78.2,86.553l-1.029,1.225-1.046,1.2-1.174,1.085-1.281.951-1.225.772-1.118.928-1.18.828-1.3.621-1.275.638-1.3.71-1.387.559-1.3.738-1.4.487-1.454.324-1.443.3-1.437.352-1.376.229-1.471.733-1.627.24-1.6.324-1.627.112-1.633.028L46.893,99.9l-1.622.173-1.549.1-1.555.089-1.549-.073-1.555.117-1.549-.089-1.538-.123-1.56.067-1.538-.229H31.329l-1.538-.213-1.549-.056-1.678-.308-1.633-.4-1.549-.7-1.678-.229L20.318,97.5l-1.365-.481-1.42-.4-1.325-.643-1.342-.638-1.281-.727-1.314-.677-1.247-.8-1.325-.8L8.452,91.43,7.3,90.4,6.282,89.232,5.3,88.074,4.274,86.911l-.621-1.325-.822-1.208-.8-1.23L1.54,81.772.98,80.424l-.71-1.3L-.021,77.69l-.358-1.46-.291-1.482-.4-1.532-.419-1.532L-1.609,70.1-1.877,68.5l.028-1.588-.117-1.555V63.77l-.112-1.577.112-1.583V59.028l-.073-1.583L-2,55.863l.045-1.583L-2.067,52.7V51.115l.213-1.583-.039-1.577-.168-1.583.05-1.583.14-1.583-.089-1.583.073-1.583-.056-1.583.1-1.577L-2.012,35.3V33.718l.173-1.583-.2-1.594-.089-1.583.073-1.583.168-1.583-.045-1.583-.129-1.566-.05-1.583.134-1.583L-1.9,17.9l-.067-1.6-.039-1.583-.1-1.577.05-1.583-.073-1.583.067-1.583L-1.9,6.808l-.162-1.583.1-1.594-.056-1.577.05-1.549L-1.62-.988l.665-1.387,1.2-1.359,1.538-.917,1.527-.6L4.934-5.54l1.633.235,1.6.24,1.365.492,1.241.794.878,1.18.917,1.2L12.942.035,13.1,1.489l.207,1.275L13.16,4.023V8.664l.045,1.555.1,1.549-.157,1.555v1.555l.168,1.555L13.132,18l.2,1.549-.089,1.555-.106,1.538.1,1.566L13.2,25.765l-.067,1.549.084,1.555-.084,1.555.157,1.555v3.1Z" transform="translate(2.129 5.54)" fill="#fff"/>
    </g>
    <g id="Group_10688" data-name="Group 10688" transform="translate(153.628 140.164)">
      <path id="Path_9992" data-name="Path 9992" d="M51.928,121.3l-1.717.028H48.489l-1.717-.028-1.717-.045-1.717.145-1.717-.1-1.728-.028-1.678.1L36.5,121.5l-1.75-.14-1.717-.089-1.717.173-1.717-.05-1.722-.14-1.717.207-1.717-.134-1.717.067H21l-1.706.145-1.717-.1H15.847l-1.717.05-1.717-.05-1.717-.162-1.722.168-1.611-.274-1.583-.229-1.532-.6L3.13,119.16l-1.158-1.4-.878-1.633v-1.857l-.157-1.678.14-1.678-.067-1.706v-3.355l.078-1.706L.9,102.473l.162-1.678L1.01,99.117.96,97.412l.089-1.678.078-1.678L.949,92.127.876,90.449V88.772l.252-1.678-.157-1.42L.116,84.628l-1.448-.168-1.678-.285-1.611-.559-1.342-1.023L-7.02,81.25l-.559-1.577L-8.2,78.085l.05-1.717.4-1.678.783-1.583.794-1.46.7-1.5.654-1.532.9-1.409.615-1.549.71-1.5.833-1.432.559-1.583.749-1.488L.49,58.271l.733-1.488.643-1.538L2.7,53.809l.677-1.515.559-1.577.727-1.493.761-1.471.783-1.465.688-1.454,1.085-1.186.867-1.359,1.281-.973,1.241-1,1.3-1.118,1.392-1.012,1.3-1.118,1.46-.912,1.337-1.118,1.387-1.029,1.331-1.018,1.42-.984,1.3-1.118,1.376-1.035,1.5-.85,1.3-1.118,1.37-1.035,1.471-.9,1.3-1.118,1.471-.895,1.348-1.068,1.247-1.219,1.51-.844,1.241-1.225,1.527-.828,1.37-1.04,1.23-1.225,1.493-.872L45.5,14.137l-.1-1.84-.5-1.767-.442-1.79-.28-1.823-.419-1.7L43.478,3.54l-.733-1.555L42.22.375l-.559-1.6L41.1-2.852,40.509-4.44l-.559-1.376L39.541-7.27l.145-1.577.559-1.432L41.28-11.4l1.409-.721,1.56-.218,1.527.33,1.8.677,1.56,1.118,1.163,1.5.85,1.493.727,1.549,1.012,1.42.559,1.633.99,2.321,1.292.257.878-.984.654-1.158L58.376-3.4l.99-1.325,1.118-1.208L61.491-7.27,62.7-8.388l1.253-1.085,1.258-1.068,1.275-1.046,1.359-.951,1.342-.962,1.515-.9,1.482-.984,1.588-.777,1.678-.559,1.65-.654,1.717-.425,1.678-.559,1.784-.123,1.728-.4,1.678-.078,1.678-.2,1.678.24,1.678-.123,1.678.112h1.678l1.678.324,1.678.257,1.678.19,1.65.336,1.65.369,1.678.235,1.577.621,1.678.213,1.6.559,1.845.682,1.862.638,1.913.492,1.454.5,1.337.816.643,1.415.38,1.465-.078,1.555-.621,1.437-.9,1.376-.962,1.342-.889,1.376L114.086-1.3,113.113.034l-1.118,1.225-1.219,1.118-1.118,1.208-1.018,1.3-1.18,1.152-1.281,1.046L104.92,8.142l-1.432.844-1.269,1.063-1.471.749-1.465.738-1.42.833-1.56.738-1.577.716-1.678.447-1.627.559-1.706.324-1.678.5-1.722.213-1.717.229-1.644.308-1.706.1-1.717.089-1.706.112-1.678.2-1.678.464-1.717.117H71.031l-1.678.274-1.678.408-1.571.33-1.068.654.559,1.174,1.471.822,1.23,1.118,1.415.889,1.348.973L72.3,25.243l1.337,1,1.3,1.035,1.415.878L77.6,29.27l1.454.833,1.18,1.2,1.409.895,1.348,1.18,1.571.878,1.314,1.225,1.51.962,1.465,1.018,1.3,1.241,1.516.962,1.359,1.163,1.432,1.063,1.219,1.314L96.711,44.7l.733,1.56.66,1.6.923,1.46.638,1.611.945,1.454.833,1.51.643,1.6.749,1.555.923,1.465.61,1.627.962,1.443.615,1.627.917,1.465.688,1.583.828,1.516.71,1.571.749,1.555.889,1.482.665,1.6.487,1.527.526,1.549-.145,1.633-.559,1.527-.738,1.443L109.7,82.693l-1.337.867-1.437.716-1.6.319-1.118.089-1.219,1.2-.039,1.5-.062,1.717-.162,1.722.157,1.728v1.722L102.812,96v3.45l.173,1.722-.207,1.722-.1,1.722.123,1.722.078,1.728v1.722L103,111.51l-.213,1.722v1.644l-.559,1.532-.559,1.527-1.068,1.2-1.2,1.063-1.443.755-1.611.274-1.627.056-1.694-.022-1.717.218-1.706-.157-1.717.073-1.706-.134-1.717.089-1.717-.056-1.706.05-1.717-.089-1.706.207L75.9,121.3l-1.706.112-1.717.078-1.717-.179-1.706.112-1.717-.039-1.717.022-1.678.039-1.717.028-1.706-.117-1.717-.078H57.067l-1.717.157-1.706-.089Zm0-12.152,1.728-.028h1.722l1.728.039,1.728.05,1.722-.157,1.728.1,1.728.039,1.722-.1,1.728-.134,1.728.14,1.722.089,1.728-.173,1.728.05,1.722.14L77.82,109l1.722.123,1.728-.056H83l1.722-.1,1.728.1h1.728l1.918-.386.38-1.929.162-1.678L90.47,103.4l.173-1.678-.14-1.706-.1-1.678.207-1.678-.05-1.678-.151-1.89.257-1.678-.168-1.75.134-1.678-.062-1.678V82.95l.078-1.706-.19-1.678.308-1.762.47-1.706.928-1.515L93.579,73.4l1.622-.716.912-.878-.3-1.158-.794-1.51-.559-1.644L93.6,66.022l-.671-1.583-.844-1.488-.794-1.51-.85-1.482L89.7,58.428l-.7-1.555-.621-1.6-1.018-1.4L86.6,52.344l-.727-1.118-.9-1.018-1.348-1.118L82.21,48.06l-1.454-.984-1.281-1.2-1.482-.939L76.584,43.91l-1.325-1.118-1.527-.872-1.4-1.063-1.253-1.23-1.4-1.046-1.46-.973L66.943,36.49l-1.387-.967-1.465-.856L62.743,33.66l-1.309-1.04-1.314-1.057-1.4-.94-1.281-.7-.408,1.4-.386,1.409-.168,1.432-.257,1.549-.816,1.381-1.118,1.152-1.51.5-1.56.313-1.862-.291-1.678-.912-1.163-1.488-.755-1.745-.134-2.237-.336-1.678-1.465.7-1.37,1.035-1.482.895-1.3,1.118-1.46.917-1.359,1.063-1.264,1.208-1.51.85-1.247,1.219-1.527.833L29.934,41.59,28.7,42.814l-1.493.872-1.258,1.186-1.432.967L23.156,46.9,21.78,47.931l-1.437.951-1.337,1.085-1.65,1.678L16.8,53.322,15.97,54.86,15.142,56.4l-.895,1.5-.85,1.532-.688,1.6-.638,1.633-.9,1.5-.844,1.532-.761,1.577L8.84,68.874l-.755,1.571-.358,1.32,1.018.939,1.4.761,1.18,1.063.917,1.292.559,1.488.559,1.515-.123,1.622.168,1.728L13.3,83.9l-.117,1.722.162,1.722L13.19,89.1l.073,1.728-.05,1.722.162,1.722L13.308,96l-.073,1.722v3.45l-.045,1.722.05,1.722-.028,1.722.229,1.443L14.56,108.9l1.571.2,1.706-.056,1.678.078,1.678-.168,1.706.2,1.678-.168,1.678.067,1.706-.112,1.678.274,1.706-.157,1.678.039,1.678-.112,1.706.145,1.678.039,1.678-.078,1.706.028h1.678l1.706-.157,1.678.218,1.678-.252,1.706.078ZM90.436-8.388,88.7-8.332l-1.722.1-1.722.123-1.722.2-1.678.492-1.694.336-1.633.559L77.009-5.7,75.633-4.669l-1.392,1-1.275,1.2L71.909-1.062,70.707.213l-1.253,1.23L68.47,2.908,67.24,4.161l-1.118,1.37-.5,1.309,1.454.185,1.745-.112,1.739-.257,1.773-.263L73.956,6.3l1.633.028L77.2,6.04l1.633.05,1.6-.28,1.611-.252H83.7l1.6-.336,1.549-.559L88.5,4.435l1.488-.7,1.56-.514L93,2.444l1.437-.794L95.816.744l1.392-.867,1.186-1.118,1.359-.928,1.174-1.152,1.118-1.186.856-1.365-1.387-.85-1.6-.117-1.6-.185-1.583-.218-1.549-.492-1.6-.134L92.019-8.2Z" transform="translate(8.2 19.159)" fill="#fff"/>
    </g>
  </g>
</svg>
